<?xml version="1.0" standalone="no"?>
<!DOCTYPE svg PUBLIC "-//W3C//DTD SVG 20010904//EN"
 "http://www.w3.org/TR/2001/REC-SVG-20010904/DTD/svg10.dtd">
<svg version="1.0" xmlns="http://www.w3.org/2000/svg"
 width="500.000000pt" height="500.000000pt" viewBox="0 0 500.000000 500.000000"
 preserveAspectRatio="xMidYMid meet">
<metadata>
Created by potrace 1.16, written by Peter Selinger 2001-2019
</metadata>
<g transform="translate(0.000000,500.000000) scale(0.100000,-0.100000)"
fill="#000000" stroke="none">
<path d="M2287 3989 c-478 -84 -881 -386 -1100 -824 -121 -243 -167 -484 -147
-772 26 -390 181 -719 466 -993 189 -182 409 -304 672 -372 106 -28 135 -31
316 -36 271 -6 405 16 621 104 208 85 362 191 521 356 204 213 332 456 396
752 29 134 31 401 4 551 -79 442 -345 824 -737 1056 -142 85 -375 164 -554
189 -115 16 -337 11 -458 -11z m518 -25 c190 -32 404 -120 580 -237 120 -80
311 -272 394 -396 395 -594 326 -1362 -168 -1869 -285 -294 -660 -452 -1070
-452 -724 0 -1339 523 -1463 1245 -26 155 -21 420 10 556 70 298 194 522 406
735 252 251 547 393 902 434 101 11 293 4 409 -16z"/>
<path d="M3210 3533 c-39 -48 -108 -190 -155 -318 l-37 -100 -51 -17 c-29 -9
-76 -20 -105 -24 -44 -6 -52 -10 -46 -23 17 -38 16 -82 -1 -101 -24 -27 -44
-25 -55 4 -15 41 13 115 58 153 34 29 20 42 -21 20 -48 -25 -107 -44 -165 -52
-56 -7 -58 -11 -41 -49 23 -49 -21 -115 -57 -85 -31 26 -2 123 49 164 27 21
29 25 14 31 -25 9 -38 -5 -159 -168 -104 -140 -136 -171 -139 -130 -6 83 21
244 52 305 11 21 36 63 55 93 51 79 134 254 134 281 0 28 -16 30 -44 4 -17
-14 -55 -22 -181 -35 -88 -10 -171 -20 -184 -23 -22 -6 -24 -4 -18 25 9 46 -9
48 -32 4 -19 -37 -23 -39 -104 -56 -46 -10 -90 -22 -98 -26 -27 -17 -2 -19 56
-5 33 8 72 14 87 15 l27 0 -30 -80 c-16 -44 -38 -120 -50 -168 -22 -89 -43
-122 -80 -122 -10 0 -19 -7 -19 -15 0 -9 9 -15 25 -15 16 0 25 -6 25 -16 0 -8
-11 -65 -25 -126 -30 -131 -28 -118 -11 -118 8 0 17 8 19 18 3 9 17 69 33 132
15 63 32 118 38 122 5 4 39 12 75 18 107 18 141 29 141 47 0 11 -6 14 -22 9
-53 -15 -181 -37 -186 -32 -17 17 90 341 118 356 19 10 337 46 344 39 2 -2
-13 -40 -34 -83 -21 -43 -53 -120 -71 -170 -18 -50 -37 -100 -43 -111 -5 -11
-11 -33 -12 -50 -1 -16 -5 -78 -9 -137 -8 -113 -2 -138 35 -138 21 0 69 52
131 139 43 62 44 62 51 34 16 -58 64 -69 109 -24 22 23 29 39 29 70 0 36 3 41
28 47 15 3 40 10 56 15 16 5 30 9 32 9 1 0 -5 -23 -14 -51 -14 -45 -15 -53 -2
-76 20 -35 42 -47 72 -40 34 9 61 52 61 97 0 37 1 38 56 53 31 9 64 19 73 22
16 7 17 4 3 -41 -64 -213 -76 -457 -26 -508 20 -19 21 -19 40 -2 35 31 46 84
46 211 -1 95 -5 132 -21 177 l-21 57 134 65 c121 59 158 86 118 86 -9 0 -60
-22 -115 -50 -55 -27 -104 -50 -110 -50 -19 0 -10 23 42 104 106 168 198 365
198 426 0 33 -35 24 -70 -17z m-189 -708 c12 -65 6 -193 -13 -245 -10 -31 -12
-32 -25 -15 -24 34 -7 353 18 328 5 -5 14 -36 20 -68z"/>
<path d="M2068 2456 c-207 -74 -403 -392 -333 -541 28 -57 78 -67 207 -39 138
29 178 18 178 -47 0 -47 -10 -58 -111 -125 -136 -89 -178 -154 -125 -190 23
-14 28 -14 59 1 46 22 108 88 155 165 36 60 45 68 137 117 53 30 99 52 102 50
2 -3 -3 -39 -11 -81 -19 -90 -21 -177 -4 -194 35 -35 73 -3 183 151 44 62 55
69 55 34 0 -27 28 -57 54 -57 46 0 91 59 84 110 -4 27 -1 29 51 43 31 7 64 17
73 21 14 7 13 -3 -8 -66 -30 -86 -37 -183 -14 -183 8 0 36 41 65 96 27 52 60
108 73 124 l23 29 26 -28 c22 -24 32 -27 63 -23 l36 5 0 -50 c-1 -63 28 -93
83 -84 69 11 280 181 255 206 -6 6 -38 -16 -93 -66 -80 -72 -145 -113 -183
-114 -19 0 -23 5 -32 42 -6 25 -2 30 43 53 74 37 128 118 101 150 -23 27 -60
17 -104 -27 -91 -94 -126 -107 -151 -58 -9 17 -24 30 -34 30 -26 0 -75 -58
-112 -131 -17 -34 -32 -59 -35 -57 -6 7 24 103 52 166 13 30 24 61 24 68 0 23
-19 16 -34 -14 -16 -31 -80 -56 -173 -68 l-52 -6 15 -36 c23 -56 -7 -112 -51
-96 -36 14 4 160 47 172 22 5 24 32 2 32 -23 0 -72 -54 -169 -189 -129 -179
-145 -190 -145 -106 0 80 99 418 133 452 7 7 65 17 132 23 155 13 185 18 185
32 0 11 -164 5 -252 -9 -47 -7 -49 6 -13 77 26 52 32 80 15 80 -12 0 -48 -58
-75 -118 -20 -46 -19 -45 -129 -61 -108 -16 -111 -35 -3 -27 68 6 87 4 87 -6
0 -7 -14 -52 -31 -100 l-32 -88 -93 -50 c-51 -27 -97 -50 -103 -50 -6 0 -11
17 -11 38 0 41 -25 74 -67 86 -12 4 -76 -3 -142 -15 -97 -18 -126 -20 -146
-11 -51 23 -57 91 -20 197 62 175 222 328 359 342 99 10 134 -58 84 -164 -25
-54 -88 -123 -111 -123 -10 0 -17 -7 -17 -15 0 -39 76 0 116 59 106 155 77
277 -64 276 -20 -1 -54 -7 -74 -14z"/>
</g>
</svg>
